#!OML:ASF X:\für Bonn\!DataBase\2005_08_10_Bjorn_Final\c3d\bjorn.ASF
:FULLY-SPECIFIED
:DEGREES
106
root 1.32015 12.25 3.86227 -181.057 -9.83751 -183.681
lowerback 26.2834 -0.635489 4.39417
upperback 12.9906 -3.03394 -0.760468
thorax -0.255112 -2.57426 -2.54814
lowerneck -21.3194 -2.28266 0.936906
upperneck -5.87411 -4.69221 1.58826
head 1.71549 -2.91719 -0.0314657
rclavicle -2.5842e-015 -1.55052e-014
rhumerus 81.6165 -3.14465 -69.9207
rradius 7.9732
rwrist 44.8409
rhand -15.8857 11.563
rfingers 7.12502
rthumb 10.3104 -18.1642
lclavicle -2.5842e-015 -1.55052e-014
lhumerus 83.3736 -8.53135 58.4805
lradius 10.4358
lwrist -40.6346
lhand -25.8991 -4.65457
lfingers 7.12502
lthumb 0.643172 25.3242
rfemur -64.3194 -20.3092 9.93749
rtibia 122.809
rfoot -36.331 16.2765
rtoes -38.5894
lfemur -67.0618 6.06144 -25.8698
ltibia 122.317
lfoot -29.3473 -3.06027
ltoes -29.4752
107
root 1.32119 12.4567 3.84237 -180.895 -9.802 -183.614
lowerback 25.6983 -0.65245 4.40776
upperback 12.8547 -2.98606 -0.775534
thorax -0.134986 -2.5137 -2.6027
lowerneck -21.3463 -2.27981 1.04163
upperneck -5.61297 -4.67884 1.44694
head 1.80503 -2.8979 -0.0991498
rclavicle 2.8625e-014 -2.90226e-014
rhumerus 81.5802 -3.08654 -69.795
rradius 8.12805
rwrist 44.8549
rhand -16.1799 11.6271
rfingers 7.12502
rthumb 10.0266 -18.114
lclavicle 2.8625e-014 -2.90226e-014
lhumerus 83.2353 -8.47069 59.0243
lradius 10.5174
lwrist -41.1269
lhand -25.6046 -4.66187
lfingers 7.12502
lthumb 0.927599 25.3159
rfemur -63.236 -18.9381 10.3069
rtibia 121.038
rfoot -36.1239 15.5957
rtoes -37.9678
lfemur -65.9818 5.76753 -25.7589
ltibia 120.606
lfoot -29.1146 -2.76478
ltoes -29.4684
108
root 1.32243 12.6632 3.8202 -180.722 -9.73515 -183.549
lowerback 25.0552 -0.649861 4.37375
upperback 12.7294 -2.92768 -0.761326
thorax 0.0297038 -2.45101 -2.60352
lowerneck -21.3236 -2.27039 1.06416
upperneck -5.4138 -4.64163 1.34354
head 1.86755 -2.8676 -0.136424
rclavicle 1.76918e-014 -9.93923e-015
rhumerus 81.5947 -3.00424 -69.6318
rradius 8.23513
rwrist 44.8625
rhand -16.3945 11.7213
rfingers 7.12502
rthumb 9.81954 -18.0298
lclavicle 1.76918e-014 -9.93923e-015
lhumerus 83.0831 -8.35683 59.6804
lradius 10.6196
lwrist -41.708
lhand -25.202 -4.62144
lfingers 7.12502
lthumb 1.31644 25.3542
rfemur -62.1444 -17.6557 10.6352
rtibia 119.225
rfoot -35.9324 15.1085
rtoes -37.1276
lfemur -64.8691 5.51439 -25.6418
ltibia 118.86
lfoot -28.901 -2.41417
ltoes -29.6863
109
root 1.32395 12.8717 3.79682 -180.56 -9.67861 -183.483
lowerback 24.3975 -0.645253 4.35078
upperback 12.607 -2.86567 -0.755754
thorax 0.207023 -2.38553 -2.62083
lowerneck -21.3214 -2.27991 1.14827
upperneck -5.16013 -4.63768 1.19907
head 1.95031 -2.85299 -0.201784
rclavicle -2.60408e-014 -1.15295e-014
rhumerus 81.6355 -2.93072 -69.4804
rradius 8.25539
rwrist 44.8029
rhand -16.5721 11.7955
rfingers 7.12502
rthumb 9.64825 -17.9635
lclavicle -2.60408e-014 -1.15295e-014
lhumerus 82.9207 -8.26124 60.3977
lradius 10.7549
lwrist -42.3431
lhand -24.738 -4.60338
lfingers 7.12502
lthumb 1.76457 25.3691
rfemur -61.021 -16.4833 10.9569
rtibia 117.379
rfoot -35.8026 14.5205
rtoes -36.5089
lfemur -63.7219 5.25012 -25.5102
ltibia 117.069
lfoot -28.6779 -2.04389
ltoes -30.0243
110
root 1.3259 13.0817 3.77207 -180.407 -9.62566 -183.416
lowerback 23.723 -0.640364 4.31718
upperback 12.4785 -2.80421 -0.736428
thorax 0.38915 -2.32068 -2.61674
lowerneck -21.227 -2.29227 1.17334
upperneck -4.95454 -4.62104 1.08192
head 2.00248 -2.83107 -0.244156
rclavicle -3.18055e-015 -1.43125e-014
rhumerus 81.6594 -2.86734 -69.3048
rradius 8.27555
rwrist 44.6141
rhand -16.5978 11.9685
rfingers 7.12502
rthumb 9.62337 -17.7917
lclavicle -3.18055e-015 -1.43125e-014
lhumerus 82.7246 -8.168 61.2239
lradius 10.8988
lwrist -42.9796
lhand -24.2401 -4.57352
lfingers 7.12502
lthumb 2.24546 25.3944
rfemur -59.8662 -15.4214 11.2584
rtibia 115.488
rfoot -35.6933 14.0058
rtoes -35.9147
lfemur -62.5422 5.01182 -25.3645
ltibia 115.236
lfoot -28.4538 -1.70887
ltoes -30.2474
111
root 1.32791 13.2926 3.74639 -180.268 -9.54099 -183.332
lowerback 23.0478 -0.622656 4.3196
upperback 12.3377 -2.7161 -0.739014
thorax 0.561415 -2.23915 -2.66128
lowerneck -21.0818 -2.30922 1.29409
upperneck -4.7534 -4.62677 0.91923
head 2.04087 -2.82198 -0.318508
rclavicle 7.7526e-015 -1.51076e-014
rhumerus 81.6237 -2.81931 -69.1567
rradius 8.34149
rwrist 44.4251
rhand -16.5071 11.9922
rfingers 7.12502
rthumb 9.71097 -17.7639
lclavicle 7.7526e-015 -1.51076e-014
lhumerus 82.5424 -8.14165 61.8333
lradius 11.0827
lwrist -43.3667
lhand -23.6822 -4.52942
lfingers 7.12502
lthumb 2.78424 25.4322
rfemur -58.688 -14.4092 11.5594
rtibia 113.552
rfoot -35.6329 13.421
rtoes -35.5072
lfemur -61.344 4.84629 -25.1838
ltibia 113.374
lfoot -28.2914 -1.43778
ltoes -30.498
112
root 1.32965 13.5056 3.7193 -180.134 -9.45727 -183.229
lowerback 22.3457 -0.612782 4.32721
upperback 12.2099 -2.64324 -0.726489
thorax 0.763871 -2.16637 -2.68957
lowerneck -20.9795 -2.32062 1.35286
upperneck -4.52003 -4.61211 0.783669
head 2.10024 -2.80049 -0.373284
rclavicle 1.35174e-014 6.36111e-015
rhumerus 81.5662 -2.72149 -69.0091
rradius 8.51897
rwrist 44.1797
rhand -16.208 11.9876
rfingers 7.12502
rthumb 9.99952 -17.7549
lclavicle 1.35174e-014 6.36111e-015
lhumerus 82.4805 -8.08109 61.986
lradius 11.147
lwrist -43.1939
lhand -23.201 -4.51094
lfingers 7.12502
lthumb 3.24899 25.444
rfemur -57.4726 -13.4787 11.8899
rtibia 111.559
rfoot -35.6445 12.7053
rtoes -35.4134
lfemur -60.1362 4.69151 -24.9762
ltibia 111.474
lfoot -28.094 -1.22718
ltoes -30.5704
113
root 1.33146 13.7182 3.69152 -179.982 -9.37172 -183.162
lowerback 21.6246 -0.59493 4.2877
upperback 12.0671 -2.56485 -0.712426
thorax 0.962857 -2.09161 -2.6896
lowerneck -20.8662 -2.33608 1.43839
upperneck -4.27215 -4.60508 0.600912
head 2.16102 -2.78396 -0.448805
rclavicle -1.41137e-014 4.37326e-015
rhumerus 81.4704 -2.6074 -68.8479
rradius 8.71397
rwrist 43.9074
rhand -15.8549 11.9292
rfingers 7.12502
rthumb 10.3402 -17.7966
lclavicle -1.41137e-014 4.37326e-015
lhumerus 82.5098 -8.05047 61.8167
lradius 11.0948
lwrist -42.633
lhand -22.7962 -4.45186
lfingers 7.12502
lthumb 3.63987 25.4968
rfemur -56.2819 -12.6615 12.1669
rtibia 109.542
rfoot -35.6186 12.0779
rtoes -35.2813
lfemur -58.9143 4.53562 -24.7974
ltibia 109.526
lfoot -27.9044 -1.09899
ltoes -30.4581
